<svg width="1140" height="81" viewBox="0 0 1140 81" fill="none" xmlns="http://www.w3.org/2000/svg">
<ellipse opacity="0.1" rx="39.9885" ry="39.5041" transform="matrix(-1 -0.000200035 -0.000204971 1 39.9965 41.4878)" fill="#F44335"/>
<ellipse opacity="0.2" rx="26.2824" ry="26.1592" transform="matrix(-1 -0.000200035 -0.000204971 1 39.9594 41.3646)" fill="#F44335"/>
<ellipse opacity="0.4" rx="14.1619" ry="14.3338" transform="matrix(-1 -0.000200035 -0.000204971 1 40.7678 41.2599)" fill="#F44335"/>
<path d="M32.3301 41.4912C32.3301 36.0352 36.753 31.6123 42.2089 31.6123H898.451C903.907 31.6123 908.33 36.0352 908.33 41.4912C908.33 46.9471 903.907 51.37 898.451 51.37H42.2089C36.753 51.37 32.3301 46.9471 32.3301 41.4912Z" fill="url(#paint0_linear)" fill-opacity="0.3"/>
<path d="M901.33 41.4912C901.33 38.7632 899.119 36.5518 896.391 36.5518H45.2695C42.5416 36.5518 40.3301 38.7632 40.3301 41.4912C40.3301 44.2192 42.5415 46.4306 45.2695 46.4306H896.391C899.119 46.4306 901.33 44.2192 901.33 41.4912Z" fill="url(#paint1_linear)"/>
<path opacity="0.2" d="M1140 73.1035C1140 70.3755 1137.79 68.1641 1135.06 68.1641H417.939C415.211 68.1641 413 70.3755 413 73.1035C413 75.8315 415.211 78.0429 417.939 78.0429H1135.06C1137.79 78.0429 1140 75.8315 1140 73.1035Z" fill="#F44335"/>
<path opacity="0.2" d="M954 4.93943C954 2.21146 951.789 0 949.061 0H311.939C309.211 0 307 2.21146 307 4.93943C307 7.6674 309.211 9.87886 311.939 9.87886H949.061C951.789 9.87886 954 7.6674 954 4.93943Z" fill="#F44335"/>
<path opacity="0.2" d="M397 73.1035C397 70.3755 394.789 68.1641 392.061 68.1641H351.939C349.211 68.1641 347 70.3755 347 73.1035C347 75.8315 349.211 78.0429 351.939 78.0429H392.061C394.789 78.0429 397 75.8315 397 73.1035Z" fill="#F44335"/>
<path opacity="0.4" d="M291 4.93943C291 2.21146 288.789 0 286.061 0H271.939C269.211 0 267 2.21146 267 4.93943C267 7.6674 269.211 9.87886 271.939 9.87886H286.061C288.789 9.87886 291 7.6674 291 4.93943Z" fill="#F44335"/>
<defs>
<linearGradient id="paint0_linear" x1="908.33" y1="41.5661" x2="32.3301" y2="41.5663" gradientUnits="userSpaceOnUse">
<stop stop-color="#F44335" stop-opacity="0.2"/>
<stop offset="1" stop-color="#F44335"/>
</linearGradient>
<linearGradient id="paint1_linear" x1="887.254" y1="41.5684" x2="40.33" y2="41.5689" gradientUnits="userSpaceOnUse">
<stop stop-color="#F44335" stop-opacity="0"/>
<stop offset="1" stop-color="#F44335" stop-opacity="0.6"/>
</linearGradient>
</defs>
</svg>
